<svg width="80" height="80" viewBox="0 0 80 80" fill="none" xmlns="http://www.w3.org/2000/svg">
<path d="M42.1426 71.3872V77.0435H40.9707V74.6997H38.5176V77.0435H37.3379V71.3872H38.5176V73.731H40.9707V71.3872H42.1426Z" fill="white"/>
<path d="M35.7233 71.1281L36.9697 71.3479L34.0563 76.5777L32.5714 76.3159L31.6302 70.4064L32.8689 70.6248L33.0578 71.9829L35.0736 72.3384L35.7233 71.1281ZM34.6225 73.187L33.1914 72.9347L33.5158 75.1893L33.5543 75.1961L34.6225 73.187Z" fill="white"/>
<path d="M30.4393 69.9432L28.5047 75.2583L27.4035 74.8575L29.0067 70.4527L26.7162 69.619L27.0476 68.7087L30.4393 69.9432Z" fill="white"/>
<path d="M25.3875 67.8394L22.5594 72.7378L21.5445 72.1519L23.8882 68.0924L21.7773 66.8736L22.2617 66.0347L25.3875 67.8394Z" fill="white"/>
<path d="M18.0175 69.9571L17.0061 69.1084L17.5734 66.4026L17.5315 66.3674L14.9713 67.401L13.9599 66.5524L17.88 65.0892L19.1756 63.5452L20.0733 64.2984L18.7777 65.8425L18.0175 69.9571Z" fill="white"/>
<path d="M13.221 65.7781L12.2869 64.6649L14.2161 60.9963L14.1759 60.9484L10.228 62.2112L9.29395 61.0981L13.6269 57.4623L14.3601 58.3361L11.5233 60.7164L11.5534 60.7523L15.3214 59.5181L15.8235 60.1166L13.9419 63.623L13.972 63.6589L16.8207 61.2686L17.5539 62.1423L13.221 65.7781Z" fill="white"/>
<path d="M10.892 56.7893C11.0756 57.1073 10.967 57.5128 10.6518 57.6857C10.3445 57.8722 9.94573 57.7596 9.76214 57.4416C9.59026 57.1439 9.68826 56.7355 9.99948 56.5558C10.3107 56.3761 10.7202 56.4916 10.892 56.7893Z" fill="white"/>
<path d="M4.68384 51.4078L4.28037 50.2992L7.7308 49.0434C8.89808 48.6185 9.98956 49.2189 10.4705 50.5404C10.9515 51.8618 10.4986 53.016 9.33135 53.4408L5.88091 54.6967L5.48011 53.5955L8.84245 52.3717C9.45178 52.1499 9.74195 51.5538 9.50147 50.8931C9.25831 50.225 8.65551 49.9622 8.04618 50.184L4.68384 51.4078Z" fill="white"/>
<path d="M3.09429 44.277L8.66461 43.2948L8.84097 44.295L5.73323 47.3656L5.74137 47.4118L9.28052 46.7878L9.48402 47.9418L3.9137 48.924L3.73462 47.9085L6.84508 44.8532L6.83558 44.7993L3.29643 45.4233L3.09429 44.277Z" fill="white"/>
<path d="M2.91504 38.9858H8.57129V40.1577H2.91504V38.9858Z" fill="white"/>
<path d="M3.26819 34.7784L7.75394 34.1732L7.76344 34.1193L3.75658 32.0087L3.98178 30.7315L9.21294 33.6371L8.95111 35.122L3.04028 36.071L3.26819 34.7784Z" fill="white"/>
<path d="M9.83641 31.0139L4.52128 29.0793L5.81988 25.5114L6.73021 25.8427L5.83241 28.3094L7.12449 28.7797L7.95549 26.4965L8.86582 26.8279L8.03481 29.111L9.32689 29.5813L10.2274 27.1073L11.1377 27.4386L9.83641 31.0139Z" fill="white"/>
<path d="M12.022 25.6394L7.1235 22.8113L8.23287 20.8898C8.8774 19.7734 9.87381 19.5007 10.8413 20.0593C11.5111 20.446 11.8205 21.0351 11.7351 21.73L14.2446 21.7896L13.5962 22.9128L11.3183 22.8425L10.8691 23.6206L12.6079 24.6245L12.022 25.6394ZM10.0436 23.144L10.4577 22.4269C10.8054 21.8247 10.723 21.3892 10.2359 21.108C9.74195 20.8228 9.30335 20.9575 8.95569 21.5597L8.54163 22.2768L10.0436 23.144Z" fill="white"/>
<path d="M13.8281 16.0561C13.4568 15.8058 13.0223 15.9104 12.6557 16.3472C12.2741 16.8021 12.2726 17.2292 12.5549 17.4762C12.8611 17.7433 13.2809 17.5347 13.676 17.234L14.0982 16.9253C14.8885 16.3238 15.7325 16.0836 16.4567 16.6912C17.2526 17.3591 17.2331 18.4034 16.3493 19.4567C15.4705 20.504 14.4233 20.7675 13.4755 20.0131L14.2087 19.1393C14.6707 19.476 15.1834 19.3147 15.5851 18.8359C15.9819 18.3631 16.0165 17.8721 15.6934 17.6009C15.4001 17.3548 15.0365 17.5087 14.5201 17.881L14.0096 18.2584C13.2174 18.8379 12.4757 18.9804 11.8414 18.4481C11.0514 17.7852 11.1132 16.6541 11.9067 15.7085C12.7102 14.751 13.7751 14.5635 14.5512 15.1943L13.8281 16.0561Z" fill="white"/>
<path d="M16.9326 10.9946L20.5683 15.3276L19.6706 16.0808L16.0349 11.7479L16.9326 10.9946Z" fill="white"/>
<path d="M20.3825 9.67974L19.8981 8.84078L23.9103 6.52438L24.3946 7.36334L22.8926 8.23053L25.2364 12.29L24.2283 12.8721L21.8845 8.81256L20.3825 9.67974Z" fill="white"/>
<path d="M24.9718 6.06947L26.2125 5.61789L28.2722 7.46217L28.3236 7.44346L28.7086 4.7094L29.9492 4.25783L29.2563 8.38431L29.9457 10.2784L28.8445 10.6792L28.1551 8.78512L24.9718 6.06947Z" fill="white"/>
<path d="M34.1141 6.99198C33.7525 7.05574 33.4086 6.81492 33.3538 6.45965C33.2837 6.10709 33.5259 5.77087 33.8875 5.70711C34.2261 5.64742 34.5763 5.87918 34.6387 6.2331C34.7011 6.58701 34.4526 6.93228 34.1141 6.99198Z" fill="white"/>
<path d="M37.7324 8.65479V2.99854L38.9043 2.99854V5.34229L41.3574 5.34229V2.99854L42.5371 2.99854V8.65479H41.3574V6.31104L38.9043 6.31104V8.65479H37.7324Z" fill="white"/>
<path d="M44.1517 8.91387L42.9053 8.69409L45.8187 3.46429L47.3036 3.72612L48.2448 9.63559L47.0061 9.41717L46.8172 8.05905L44.8014 7.70361L44.1517 8.91387ZM45.2525 6.85499L46.6836 7.10732L46.3592 4.85268L46.3207 4.8459L45.2525 6.85499Z" fill="white"/>
<path d="M49.4348 10.0988L51.3693 4.78367L52.4705 5.18448L50.8673 9.58929L53.1578 10.423L52.8265 11.3333L49.4348 10.0988Z" fill="white"/>
<path d="M54.4865 12.2026L57.3147 7.30416L58.3295 7.8901L55.9858 11.9496L58.0967 13.1683L57.6123 14.0073L54.4865 12.2026Z" fill="white"/>
<path d="M61.8575 10.0844L62.8689 10.9331L62.3016 13.6389L62.3435 13.6741L64.9037 12.6405L65.9151 13.4892L61.995 14.9523L60.6994 16.4963L59.8017 15.7431L61.0973 14.199L61.8575 10.0844Z" fill="white"/>
<path d="M66.654 14.2639L67.5881 15.377L65.6589 19.0457L65.6991 19.0935L69.647 17.8308L70.581 18.9439L66.2481 22.5797L65.5149 21.7059L68.3517 19.3256L68.3216 19.2897L64.5536 20.5239L64.0515 19.9254L65.9331 16.419L65.903 16.3831L63.0543 18.7734L62.3211 17.8997L66.654 14.2639Z" fill="white"/>
<path d="M68.982 23.2522C68.7984 22.9343 68.9071 22.5287 69.2222 22.3558C69.5295 22.1693 69.9283 22.2819 70.1119 22.5999C70.2838 22.8976 70.1858 23.306 69.8745 23.4857C69.5633 23.6654 69.1539 23.5499 68.982 23.2522Z" fill="white"/>
<path d="M75.1912 28.6342L75.5946 29.7428L72.1442 30.9986C70.9769 31.4235 69.8854 30.8231 69.4045 29.5016C68.9235 28.1802 69.3764 27.026 70.5437 26.6011L73.9941 25.3453L74.3949 26.4465L71.0326 27.6703C70.4232 27.8921 70.133 28.4882 70.3735 29.1489C70.6167 29.817 71.2195 30.0798 71.8288 29.858L75.1912 28.6342Z" fill="white"/>
<path d="M76.7807 35.765L71.2104 36.7472L71.034 35.747L74.1418 32.6763L74.1336 32.6302L70.5945 33.2542L70.391 32.1002L75.9613 31.118L76.1404 32.1335L73.0299 35.1888L73.0394 35.2427L76.5786 34.6186L76.7807 35.765Z" fill="white"/>
<path d="M76.96 41.0557H71.3037V39.8838H76.96V41.0557Z" fill="white"/>
<path d="M76.6068 45.2631L72.1211 45.8683L72.1116 45.9222L76.1184 48.0328L75.8932 49.31L70.6621 46.4044L70.9239 44.9195L76.8347 43.9705L76.6068 45.2631Z" fill="white"/>
<path d="M70.0386 49.0277L75.3537 50.9622L74.0551 54.5301L73.1448 54.1988L74.0426 51.7321L72.7505 51.2618L71.9195 53.545L71.0092 53.2136L71.8402 50.9305L70.5481 50.4602L69.6476 52.9342L68.7373 52.6029L70.0386 49.0277Z" fill="white"/>
<path d="M67.853 54.4021L72.7515 57.2303L71.6421 59.1517C70.9976 60.2681 70.0012 60.5408 69.0337 59.9822C68.3639 59.5955 68.0545 59.0064 68.1399 58.3115L65.6304 58.2519L66.2788 57.1288L68.5567 57.199L69.0059 56.4209L67.2671 55.417L67.853 54.4021ZM69.8314 56.8975L69.4173 57.6146C69.0696 58.2168 69.152 58.6523 69.6391 58.9335C70.133 59.2187 70.5717 59.084 70.9193 58.4818L71.3334 57.7647L69.8314 56.8975Z" fill="white"/>
<path d="M66.0469 63.9854C66.4182 64.2357 66.8527 64.1311 67.2193 63.6943C67.6009 63.2394 67.6024 62.8123 67.3201 62.5653C67.0139 62.2982 66.5941 62.5068 66.199 62.8075L65.7768 63.1162C64.9865 63.7177 64.1425 63.9579 63.4183 63.3503C62.6224 62.6824 62.6419 61.6381 63.5257 60.5848C64.4045 59.5375 65.4517 59.274 66.3995 60.0284L65.6663 60.9022C65.2043 60.5655 64.6916 60.7268 64.2899 61.2056C63.8931 61.6784 63.8585 62.1694 64.1816 62.4406C64.4749 62.6867 64.8385 62.5328 65.3549 62.1605L65.8654 61.7831C66.6576 61.2036 67.3993 61.0611 68.0336 61.5934C68.8236 62.2563 68.7618 63.3874 67.9683 64.333C67.1648 65.2905 66.0999 65.478 65.3238 64.8472L66.0469 63.9854Z" fill="white"/>
<path d="M62.9424 69.0469L59.3067 64.7139L60.2044 63.9607L63.8401 68.2936L62.9424 69.0469Z" fill="white"/>
<path d="M59.4925 70.3618L59.9769 71.2007L55.9647 73.5171L55.4804 72.6782L56.9824 71.811L54.6386 67.7515L55.6467 67.1695L57.9905 71.2289L59.4925 70.3618Z" fill="white"/>
<path d="M54.9032 73.972L53.6625 74.4236L51.6028 72.5793L51.5514 72.598L51.1664 75.3321L49.9258 75.7837L50.6187 71.6572L49.9293 69.7631L51.0305 69.3623L51.7199 71.2564L54.9032 73.972Z" fill="white"/>
<path d="M45.7609 73.0495C46.1225 72.9858 46.4664 73.2266 46.5212 73.5819C46.5913 73.9344 46.3491 74.2706 45.9875 74.3344C45.6489 74.3941 45.2987 74.1623 45.2363 73.8084C45.1739 73.4545 45.4224 73.1092 45.7609 73.0495Z" fill="white"/>
<path d="M46.8594 42.0001L39.1451 49.7144M39.1451 49.7144L31.4308 42.0001M39.1451 49.7144L39.1451 29.1429" stroke="white" stroke-width="2.28571"/>
</svg>
