<svg width="126" height="56" viewBox="0 0 126 56" fill="none" xmlns="http://www.w3.org/2000/svg">
<rect x="55.5" y="0.5" width="15" height="23" rx="7.5" stroke="white"/>
<rect x="62.5" y="12" width="1" height="6" rx="0.5" fill="white"/>
<path d="M14.6203 41.6719C14.5109 40.625 13.5891 40.0156 12.2922 40.0156C10.9016 40.0156 10.0266 40.7188 10.0266 41.6875C10.0266 42.7656 11.1984 43.1719 12.0891 43.3906L13.1828 43.6875C14.6359 44.0312 16.4328 44.8281 16.4484 46.875C16.4328 48.7812 14.9172 50.1875 12.2453 50.1875C9.71406 50.1875 8.12031 48.9219 8.01094 46.8594H9.72969C9.83906 48.0938 10.9172 48.6875 12.2453 48.6875C13.6828 48.6875 14.7297 47.9531 14.7453 46.8438C14.7297 45.8594 13.8078 45.4531 12.6047 45.1406L11.2609 44.7812C9.44844 44.2812 8.30781 43.3594 8.30781 41.7812C8.30781 39.8281 10.0578 38.5312 12.3391 38.5312C14.6359 38.5312 16.2453 39.8438 16.2922 41.6719H14.6203ZM25.7884 42.375C25.5072 40.9219 24.3041 40.1094 22.8666 40.1094C20.9134 40.1094 19.4603 41.6094 19.4603 44.3438C19.4603 47.0938 20.9291 48.5781 22.8666 48.5781C24.2884 48.5781 25.4916 47.7812 25.7884 46.3438L27.5228 46.3594C27.1634 48.5938 25.3353 50.1562 22.8509 50.1562C19.8978 50.1562 17.7572 47.9531 17.7572 44.3438C17.7572 40.7188 19.9134 38.5312 22.8509 38.5312C25.2416 38.5312 27.1322 39.9375 27.5228 42.375H25.7884ZM29.2222 50V38.6875H33.2534C35.8784 38.6875 37.1753 40.1562 37.1753 42.2344C37.1753 43.7578 36.4878 44.9141 35.1128 45.4219L37.6128 50H35.6597L33.3628 45.7344H33.2534H30.9409V50H29.2222ZM30.9409 44.25H33.0816C34.7534 44.25 35.4409 43.5156 35.4409 42.2344C35.4409 40.9531 34.7534 40.1562 33.0816 40.1562H30.9409V44.25ZM48.7497 44.3438C48.7497 47.9531 46.5778 50.1562 43.6559 50.1562C40.7028 50.1562 38.5466 47.9531 38.5466 44.3438C38.5466 40.7188 40.7028 38.5312 43.6559 38.5312C46.5778 38.5312 48.7497 40.7188 48.7497 44.3438ZM47.0466 44.3438C47.0466 41.5938 45.5934 40.1094 43.6559 40.1094C41.7028 40.1094 40.2497 41.5938 40.2497 44.3438C40.2497 47.0938 41.7028 48.5781 43.6559 48.5781C45.5934 48.5781 47.0466 47.0938 47.0466 44.3438ZM50.5272 50V38.6875H52.2459V48.5156H57.3553V50H50.5272ZM58.9609 50V38.6875H60.6797V48.5156H65.7891V50H58.9609ZM74.8128 50H71.1409V38.6875H74.9222C78.2503 38.6875 80.2503 40.8125 80.2503 44.3281C80.2503 47.8594 78.2503 50 74.8128 50ZM72.8597 48.5H74.7191C77.2816 48.5 78.5472 47 78.5472 44.3281C78.5472 41.6719 77.2816 40.1875 74.8128 40.1875H72.8597V48.5ZM91.8559 44.3438C91.8559 47.9531 89.6841 50.1562 86.7622 50.1562C83.8091 50.1562 81.6528 47.9531 81.6528 44.3438C81.6528 40.7188 83.8091 38.5312 86.7622 38.5312C89.6841 38.5312 91.8559 40.7188 91.8559 44.3438ZM90.1528 44.3438C90.1528 41.5938 88.6997 40.1094 86.7622 40.1094C84.8091 40.1094 83.3559 41.5938 83.3559 44.3438C83.3559 47.0938 84.8091 48.5781 86.7622 48.5781C88.6997 48.5781 90.1528 47.0938 90.1528 44.3438ZM95.7116 50L92.5709 38.6875H94.3834L96.5866 47.4375H96.6803L98.9772 38.6875H100.758L103.055 47.4375H103.149L105.352 38.6875H107.165L104.024 50H102.29L99.9147 41.5469H99.8209L97.4459 50H95.7116ZM117.536 38.6875V50H115.958L110.223 41.7344H110.13V50H108.411V38.6875H110.005L115.739 46.9688H115.848V38.6875H117.536Z" fill="white"/>
</svg>
