<svg width="114" height="32" viewBox="0 0 114 32" fill="none" xmlns="http://www.w3.org/2000/svg">
<g clip-path="url(#clip0_1779_559)">
<path d="M41.0104 11.6048C41.7399 11.5813 42.3314 11.0287 42.3787 10.3115V1.14844H39.1097V9.32382H27.2641V7.31329H35.5726V1.14844H23.9912V3.52737H32.276V5.14991H23.9912V9.82939C23.9912 10.4761 24.1213 10.9385 24.3855 11.2168C24.634 11.4637 25.0204 11.6048 25.5488 11.6048H41.0104Z" fill="white"/>
<path d="M25.0801 18.5341C25.0801 19.1808 25.2102 19.6315 25.4744 19.894C25.7228 20.1253 26.1172 20.2389 26.6574 20.2389H40.798C41.3264 20.2389 41.7128 20.1253 41.9612 19.894C42.2412 19.6315 42.3792 19.1808 42.3792 18.5341V13.0042H25.0801V18.5341ZM28.353 15.2616H39.1102V17.9815H28.353V15.2616Z" fill="white"/>
<path d="M0.741335 6.6861C0.741335 8.23809 1.3486 9.5275 2.57101 10.5582C3.71456 11.5419 5.05922 12.0358 6.60104 12.0358C8.14286 12.0358 9.51512 11.5419 10.6587 10.5582C11.8771 9.54317 12.4883 8.25377 12.4883 6.6861C12.4883 6.19228 12.3937 5.71806 12.2084 5.2556C12.023 4.82449 11.7786 4.42474 11.467 4.05634H13.206V1.7989H8.34396V0H4.85417V1.7989H0V4.05634H1.64434C1.35254 4.47177 1.12778 4.8872 0.973988 5.30263C0.820201 5.76509 0.745278 6.22364 0.745278 6.6861H0.741335ZM4.70432 4.94207C5.22878 4.44434 5.86365 4.19351 6.60498 4.19351C7.34632 4.19351 7.94175 4.44434 8.48198 4.94207C9.03798 5.47508 9.31795 6.11782 9.31795 6.87422C9.31795 7.63062 9.03798 8.24985 8.48198 8.78285C7.94175 9.30018 7.31477 9.55493 6.60498 9.55493C5.89519 9.55493 5.22878 9.29626 4.70432 8.78285C4.17987 8.25377 3.91567 7.61494 3.91567 6.87422C3.91567 6.1335 4.17593 5.4594 4.70432 4.94207Z" fill="white"/>
<path d="M18.2181 6.06282V1.1521H14.9491V17.8869H4.19186V13.5719H0.918945V18.5532C0.918945 19.1999 1.05696 19.6623 1.33693 19.9406C1.56959 20.1718 1.95603 20.2855 2.49625 20.2855H16.9917C17.5911 20.2855 18.2181 19.8896 18.2181 19.0509V8.48878H20.864V6.06282H18.2181Z" fill="white"/>
<path d="M65.0321 20.8579V20.8501C65.8208 20.8501 66.4557 20.2152 66.4557 19.4353V1.14844H58.9201V14.1326H51.3845V3.55089H57.3467V1.14844H48.0879V14.8067C48.0879 15.4534 48.222 15.9159 48.4822 16.1902C48.7267 16.4214 49.121 16.5351 49.6652 16.5351H58.9161V20.8462H60.5762C61.3491 20.8305 61.9682 20.2034 61.9682 19.4314V3.63711H63.3247V20.8618H65.0242L65.0321 20.8579Z" fill="white"/>
<path d="M112.304 17.9342V1.14844H95.3165V3.55089H109.031V16.8839H106.097L106.086 10.3624H102.848V16.8839H100.522V10.3624H97.2763V16.8839H94.165V19.2863H110.967C111.701 19.2589 112.288 18.6671 112.3 17.9342H112.304Z" fill="white"/>
<path d="M89.7922 4.237V1.14478H86.5232V12.4241H72.5088V14.8266H86.5232V20.8503H88.5816C89.2638 20.7484 89.7882 20.1606 89.7882 19.4551V6.63945H92.4341V4.237H89.7882H89.7922Z" fill="white"/>
<path d="M84.086 1.8382H79.2239V0.0393066H75.7341V1.8382H70.8721V4.09564H72.757C72.1379 4.8638 71.7711 5.79264 71.7711 6.78811C71.7711 9.43355 74.3185 11.5773 77.4613 11.5773C80.6041 11.5773 83.1514 9.43355 83.1514 6.78811C83.1514 5.78872 82.7886 4.85988 82.1656 4.09564H84.082V1.8382H84.086ZM77.4652 9.4845C75.9747 9.4845 74.768 8.25388 74.768 6.73324C74.768 5.21261 75.9747 3.98199 77.4652 3.98199C78.9558 3.98199 80.1624 5.21261 80.1624 6.73324C80.1624 8.25388 78.9558 9.4845 77.4652 9.4845Z" fill="white"/>
<path d="M0.875 25.1252H2.41288V27.7981H5.38216V25.1252H6.92004V31.878H5.38216V28.872H2.41288V31.878H0.875V25.1252Z" fill="white"/>
<path d="M11.6954 26.1873L13.6986 31.878H15.3271L12.6497 25.1252H10.7214L8.04785 31.878H9.7198L11.6914 26.1873H11.6954Z" fill="white"/>
<path d="M71.7597 30.8159L69.7565 25.1252H68.1279L70.8054 31.878H72.7337L75.4072 25.1252H73.7353L71.7636 30.8159H71.7597Z" fill="white"/>
<path d="M16.3291 25.1252H17.867V30.8041H21.065V31.878H16.3291V25.1252Z" fill="white"/>
<path d="M22.4092 25.1252H23.9471V30.8041H27.145V31.878H22.4092V25.1252Z" fill="white"/>
<path d="M29.1443 29.0248L26.7783 25.1252H28.4582L29.9684 27.8687L31.5378 25.1252H33.2098L30.6822 29.1346V31.878H29.1443V29.0248Z" fill="white"/>
<path d="M34.4121 25.1252H36.4508L38.0715 30.1065H38.0912L39.7828 25.1252H41.8925V31.878H40.536V26.5126H40.5163L38.7221 31.878H37.3459L35.5833 26.5126H35.5635V31.878H34.4121V25.1252Z" fill="white"/>
<path d="M48.9041 25.1252V29.2443C48.9041 30.2985 49.3734 30.9256 50.5327 30.9256C51.692 30.9256 52.1613 30.2985 52.1613 29.2443V25.1252H53.6991V29.6989C53.6991 31.2783 52.4176 31.9995 50.5327 31.9995C48.6478 31.9995 47.3623 31.2823 47.3623 29.6989V25.1252H48.9002H48.9041Z" fill="white"/>
<path d="M56.1641 25.1252H58.0371L61.3692 30.2084H61.3889V25.1252H62.7454V31.878H60.8999L57.5403 26.8771H57.5205V31.878H56.1641V25.1252Z" fill="white"/>
<path d="M65.2051 25.1252H66.743V31.878H65.2051V25.1252Z" fill="white"/>
<path d="M82.0114 26.1993H78.5887V27.963H81.5737V28.9545H78.5887V30.8083H82.0114V31.8821H77.0508V25.1294H82.0114V26.2032V26.1993Z" fill="white"/>
<path d="M91.4404 30.4907C92.0122 30.7455 92.6313 30.9258 93.2543 30.9258C93.7315 30.9258 94.3348 30.7455 94.3348 30.1772C94.3348 29.2052 91.5548 28.296 91.5548 26.697C91.5548 25.8269 92.1778 25.0078 93.8261 25.0078C94.3663 25.0078 94.9145 25.0784 95.4468 25.1881L95.6006 26.3717C95.155 26.211 94.6621 26.0777 94.1731 26.0777C93.4002 26.0777 93.0927 26.4932 93.0927 26.795C93.0927 27.8688 95.8727 28.5978 95.8727 30.236C95.8727 31.0277 95.3127 31.9996 93.5422 31.9996C92.8916 31.9996 92.2488 31.8781 91.606 31.737L91.4444 30.4907H91.4404Z" fill="white"/>
<path d="M98.0605 25.1252H99.5984V31.878H98.0605V25.1252Z" fill="white"/>
<path d="M101.385 25.1252H107.142V26.1991H105.032V31.878H103.494V26.1991H101.385V25.1252Z" fill="white"/>
<path d="M109.934 29.0248L107.572 25.1252H109.252L110.758 27.8687L112.328 25.1252H113.996L111.468 29.1346V31.878H109.93V29.0248H109.934Z" fill="white"/>
<path d="M87.9696 28.7701C89.0146 28.5036 89.6771 28.0411 89.6771 26.834C89.6771 25.721 88.7701 25.1252 87.4452 25.1252H84.3379V31.878H85.7969V26.1168H87.1613C87.9972 26.1168 88.222 26.5714 88.222 27.0574C88.222 27.8569 87.6029 28.1391 86.8419 28.1391C86.6999 28.1391 86.1755 28.1391 86.1755 28.1391L88.4428 31.8741H90.0635L87.9736 28.7662L87.9696 28.7701Z" fill="white"/>
</g>
<defs>
<clipPath id="clip0_1779_559">
<rect width="114" height="32" fill="white"/>
</clipPath>
</defs>
</svg>
