<svg width="169" height="52" viewBox="0 0 169 52" fill="none" xmlns="http://www.w3.org/2000/svg">
<g clip-path="url(#clip0_1_2007)">
<path d="M5.60526 17.0201C8.78042 17.3286 8.50721 18.2909 10.7667 20.524C13.7795 23.5137 16.7331 23.6753 18.8302 22.0299C17.5601 21.6405 16.1055 20.5975 15.2858 19.8335C13.0115 17.7033 12.3691 14.8825 5.64218 16.8144C5.34682 16.9026 5.41327 16.9981 5.60526 17.0201Z" fill="#00B5AD"/>
<path d="M74.4987 12.5465C64.2422 7.99221 53.7568 10.5705 45.3241 18.0631C37.113 25.3647 31.4937 33.9592 20.4692 34.1501C28.9093 37.0664 45.5457 35.9719 54.6724 26.8926C54.9161 26.6355 54.7241 26.6649 54.5764 26.7531C49.3042 29.9337 40.9454 31.4984 37.3419 30.3304C46.9043 24.1821 54.5321 13.4133 74.4618 12.9579C75.2002 12.8771 75.1707 12.8404 74.5061 12.5465H74.4987Z" fill="#00B5AD"/>
<path d="M19.6976 29.2947C17.8295 29.324 15.9096 28.2809 14.7724 27.517C13.1184 26.4151 11.9443 24.8211 10.6595 23.565C8.55503 21.5082 5.04019 19.9803 0.225757 21.8976C-0.0326865 22.0004 -0.0917593 22.1253 0.166684 22.14C4.58238 22.3603 4.4347 22.8966 8.14152 26.9955C10.6447 29.7574 17.3273 30.5434 19.6903 29.2947H19.6976Z" fill="#00B5AD"/>
<path d="M65.6833 7.35312C64.1179 6.42756 58.2401 3.43053 52.5175 4.02553C49.549 4.33405 46.9646 5.12003 44.3654 6.9638C43.1396 7.74978 42.2978 8.34478 41.5447 8.89571C41.4856 8.93978 41.205 9.15281 41.1164 9.21157C38.7682 10.9451 36.7155 11.7972 35.5266 12.1939C35.1057 12.3188 34.7291 12.4216 34.4338 12.4951C38.2735 7.60287 42.416 2.92368 47.5258 0.940346C47.6882 0.874235 47.6809 0.675902 47.5184 0.631828C41.3231 -0.910763 34.8178 -0.0366273 29.7006 7.78651C23.8671 16.7042 20.3892 27.326 12.3332 23.4842C17.31 28.2001 23.4536 26.158 28.7406 19.7893C29.4938 18.8858 30.2396 17.9456 30.9854 16.9833L31.8641 15.8447C34.3821 15.6611 36.2355 15.0587 37.2914 14.6106L35.5635 16.9833C29.7744 24.8725 22.0211 34.3338 10.5093 29.6619C23.7933 38.4547 33.7397 25.7981 38.6796 21.185C44.7863 15.4774 50.9373 8.16114 65.6981 7.75713C66.0304 7.74978 66.274 7.70571 65.6833 7.36046V7.35312Z" fill="#0066B3"/>
<path d="M101.65 33.1583C102.322 33.1363 102.869 32.6294 102.913 31.961V23.4988H99.8929V31.0501H88.9644V29.1917H96.6291V23.4988H85.9443V25.6951H93.5869V27.1937H85.9443V31.5129C85.9443 32.1079 86.0625 32.534 86.3062 32.7911C86.5351 33.0188 86.8895 33.151 87.3769 33.151H101.643L101.65 33.1583Z" fill="#002E6E"/>
<path d="M86.9442 39.5637C86.9442 40.1587 87.0623 40.5774 87.306 40.8198C87.5349 41.0329 87.8967 41.1431 88.3988 41.1431H101.447C101.934 41.1431 102.288 41.0402 102.517 40.8198C102.776 40.5774 102.901 40.1587 102.901 39.5637V34.4585H86.9368V39.5637H86.9442ZM89.9642 36.5373H99.8885V39.0495H89.9642V36.5373Z" fill="#002E6E"/>
<path d="M64.487 28.6186C64.487 30.051 65.0482 31.2484 66.178 32.196C67.2339 33.1068 68.4744 33.5623 69.8996 33.5623C71.3247 33.5623 72.5874 33.1068 73.6433 32.196C74.7657 31.2557 75.3343 30.0657 75.3343 28.6186C75.3343 28.1632 75.2457 27.7225 75.0758 27.2964C74.906 26.8997 74.6771 26.5325 74.3965 26.1872H75.9988V24.101H71.5093V22.4409H68.2898V24.101H63.8003V26.1872H65.3214C65.0482 26.5692 64.8415 26.9512 64.7012 27.3405C64.5609 27.7665 64.487 28.1926 64.487 28.6186ZM68.1421 27.0099C68.6295 26.5471 69.2128 26.3194 69.8996 26.3194C70.5863 26.3194 71.1327 26.5471 71.6348 27.0099C72.1517 27.5021 72.4102 28.0971 72.4102 28.7949C72.4102 29.4928 72.1517 30.0657 71.6348 30.5579C71.1401 31.0354 70.5568 31.2704 69.8996 31.2704C69.2424 31.2704 68.6295 31.0354 68.1421 30.5579C67.6548 30.0657 67.4111 29.4781 67.4111 28.7949C67.4111 28.1118 67.6548 27.4874 68.1421 27.0099Z" fill="#002E6E"/>
<path d="M80.6154 28.0457V23.5061H77.5953V38.9614H67.6711V34.98H64.651V39.5784C64.651 40.1734 64.7765 40.6068 65.035 40.8566C65.2491 41.0696 65.6035 41.1798 66.1057 41.1798H79.4783C80.0321 41.1798 80.6081 40.8125 80.6081 40.0412V30.2862H83.0522V28.0457H80.6081H80.6154Z" fill="#002E6E"/>
<path d="M123.817 41.7087C124.54 41.7087 125.131 41.121 125.131 40.3938V23.5061H118.175V35.5016H111.219V25.7245H116.72V23.5061H108.177V36.1186C108.177 36.7136 108.303 37.1397 108.539 37.3968C108.768 37.6098 109.13 37.7126 109.632 37.7126H118.168V41.694H119.704C120.412 41.6793 120.988 41.099 120.988 40.3865V25.7906H122.244V41.7013H123.809L123.817 41.7087Z" fill="#002E6E"/>
<path d="M167.441 39.0128V23.5061H151.765V25.7245H164.421V38.0432H161.719V32.0197H158.721V38.0432H156.572V32.0197H153.574V38.0432H150.702V40.2616H166.208C166.88 40.2322 167.427 39.6886 167.441 39.0128Z" fill="#002E6E"/>
<path d="M146.661 26.3562V23.4988H143.641V33.9149H130.711V36.1333H143.641V41.694H145.538C146.166 41.5985 146.653 41.0549 146.653 40.4012V28.5673H149.097V26.3489H146.653L146.661 26.3562Z" fill="#002E6E"/>
<path d="M141.394 24.1452H136.905V22.4851H133.685V24.1452H129.196V26.2314H130.938C130.362 26.9366 130.03 27.796 130.03 28.7216C130.03 31.1677 132.378 33.1437 135.28 33.1437C138.182 33.1437 140.53 31.1603 140.53 28.7216C140.53 27.796 140.198 26.9439 139.622 26.2314H141.387V24.1452H141.394ZM135.28 31.2044C133.907 31.2044 132.792 30.0658 132.792 28.6628C132.792 27.2598 133.907 26.1212 135.28 26.1212C136.654 26.1212 137.769 27.2598 137.769 28.6628C137.769 30.0658 136.654 31.2044 135.28 31.2044Z" fill="#002E6E"/>
<path d="M64.6155 45.6531H66.0332V48.1212H68.7727V45.6531H70.1905V51.8895H68.7727V49.1129H66.0332V51.8895H64.6155V45.6531Z" fill="#002E6E"/>
<path d="M74.5945 46.6374L76.4405 51.8895H77.9469L75.4806 45.6531H73.701L71.2347 51.8895H72.778L74.6019 46.6374H74.5945Z" fill="#002E6E"/>
<path d="M130.023 50.9052L128.177 45.6531H126.67L129.136 51.8895H130.916L133.382 45.6531H131.839L130.015 50.9052H130.023Z" fill="#002E6E"/>
<path d="M78.873 45.6531H80.2908V50.8979H83.2444V51.8895H78.873V45.6531Z" fill="#002E6E"/>
<path d="M84.4822 45.6531H85.8999V50.8979H88.8536V51.8895H84.4822V45.6531Z" fill="#002E6E"/>
<path d="M90.7085 49.2525L88.5228 45.6531H90.0735L91.4691 48.1873L92.9164 45.6531H94.4596L92.1263 49.3553V51.8895H90.7085V49.2525Z" fill="#002E6E"/>
<path d="M95.5586 45.6531H97.4415L98.9331 50.2515H98.9553L100.513 45.6531H102.463V51.8895H101.215V46.9312H101.2L99.546 51.8895H98.2759L96.6514 46.9312H96.6367V51.8895H95.5734V45.6531H95.5586Z" fill="#002E6E"/>
<path d="M108.939 45.6531V49.4581C108.939 50.4278 109.375 51.0081 110.445 51.0081C111.516 51.0081 111.952 50.4278 111.952 49.4581V45.6531H113.369V49.8768C113.369 51.3386 112.188 51.9997 110.445 51.9997C108.703 51.9997 107.521 51.3386 107.521 49.8768V45.6531H108.939Z" fill="#002E6E"/>
<path d="M115.638 45.6531H117.366L120.438 50.347H120.46V45.6531H121.708V51.8895H120.002L116.901 47.2691H116.886V51.8895H115.638V45.6531Z" fill="#002E6E"/>
<path d="M123.985 45.6531H125.403V51.8895H123.985V45.6531Z" fill="#002E6E"/>
<path d="M139.489 46.6447H136.329V48.2681H139.083V49.1863H136.329V50.8979H139.489V51.8895H134.911V45.6531H139.489V46.6447Z" fill="#002E6E"/>
<path d="M148.194 50.6115C148.718 50.8465 149.294 51.0155 149.87 51.0155C150.313 51.0155 150.867 50.8465 150.867 50.325C150.867 49.4288 148.297 48.5841 148.297 47.1076C148.297 46.3069 148.873 45.5503 150.394 45.5503C150.897 45.5503 151.399 45.6164 151.886 45.7192L152.026 46.8137C151.613 46.6595 151.162 46.542 150.712 46.542C149.996 46.542 149.715 46.9239 149.715 47.2031C149.715 48.1947 152.277 48.8705 152.277 50.3837C152.277 51.111 151.76 52.0071 150.129 52.0071C149.531 52.0071 148.932 51.897 148.342 51.7647L148.194 50.6115Z" fill="#002E6E"/>
<path d="M154.308 45.6531H155.726V51.8895H154.308V45.6531Z" fill="#002E6E"/>
<path d="M157.364 45.6531H162.673V46.6447H160.723V51.8895H159.306V46.6447H157.356V45.6531H157.364Z" fill="#002E6E"/>
<path d="M165.259 49.2525L163.081 45.6531H164.631L166.02 48.1873L167.467 45.6531H169.01L166.677 49.3553V51.8895H165.259V49.2525Z" fill="#002E6E"/>
<path d="M144.982 49.0174C145.949 48.775 146.562 48.3489 146.562 47.2324C146.562 46.204 145.728 45.6531 144.502 45.6531H141.637V51.8895H142.981V46.5713H144.236C145.004 46.5713 145.211 46.99 145.211 47.4381C145.211 48.18 144.642 48.4371 143.941 48.4371C143.808 48.4371 143.328 48.4371 143.328 48.4371L145.417 51.8895H146.909L144.982 49.0174Z" fill="#002E6E"/>
</g>
<defs>
<clipPath id="clip0_1_2007">
<rect width="169" height="52" fill="white"/>
</clipPath>
</defs>
</svg>
