<svg width="32" height="32" viewBox="0 0 32 32" fill="none" xmlns="http://www.w3.org/2000/svg">
<path d="M6.95312 22V10.6875H9.29688V15.7031H9.45312L13.5625 10.6875H16.3906L12.1719 15.75L16.4375 22H13.625L10.4844 17.3281L9.29688 18.7656V22H6.95312ZM17.5625 22V10.6875H22C24.5781 10.6875 26.0469 12.1406 26.0469 14.375C26.0469 15.9219 25.3359 17.0469 24.0469 17.5938L26.4531 22H23.8594L21.7031 17.9844H19.9062V22H17.5625ZM19.9062 16.0781H21.5625C22.9531 16.0781 23.625 15.5 23.625 14.375C23.625 13.2344 22.9531 12.6094 21.5625 12.6094H19.9062V16.0781Z" fill="#121212"/>
</svg>
