<svg width="169" height="52" viewBox="0 0 169 52" fill="none" xmlns="http://www.w3.org/2000/svg">
<g clip-path="url(#clip0_1_959)">
<path d="M5.60489 17.0201C8.78006 17.3286 8.50685 18.2909 10.7664 20.524C13.7791 23.5137 16.7327 23.6753 18.8298 22.0299C17.5598 21.6405 16.1051 20.5975 15.2855 19.8335C13.0112 17.7033 12.3687 14.8825 5.64181 16.8144C5.34645 16.9026 5.41291 16.9981 5.60489 17.0201Z" fill="white"/>
<path d="M74.4992 12.5465C64.2427 7.99221 53.7573 10.5705 45.3246 18.0631C37.1135 25.3647 31.4942 33.9592 20.4697 34.1501C28.9098 37.0664 45.5461 35.9719 54.6729 26.8926C54.9166 26.6355 54.7246 26.6649 54.5769 26.7531C49.3047 29.9337 40.9458 31.4984 37.3424 30.3304C46.9048 24.1821 54.5326 13.4133 74.4623 12.9579C75.2007 12.8771 75.1712 12.8404 74.5066 12.5465H74.4992Z" fill="white"/>
<path d="M19.6978 29.2947C17.8296 29.324 15.9097 28.2809 14.7726 27.517C13.1185 26.4151 11.9445 24.8211 10.6596 23.565C8.55515 21.5082 5.04032 19.9803 0.225879 21.8976C-0.0325644 22.0004 -0.0916373 22.1253 0.166806 22.14C4.5825 22.3603 4.43482 22.8966 8.14164 26.9955C10.6449 29.7574 17.3275 30.5434 19.6904 29.2947H19.6978Z" fill="white"/>
<path d="M65.6838 7.35312C64.1184 6.42756 58.2406 3.43053 52.5179 4.02553C49.5495 4.33405 46.9651 5.12003 44.3659 6.9638C43.1401 7.74978 42.2983 8.34478 41.5452 8.89571C41.4861 8.93978 41.2055 9.15281 41.1169 9.21157C38.7687 10.9451 36.716 11.7972 35.5271 12.1939C35.1062 12.3188 34.7296 12.4216 34.4343 12.4951C38.274 7.60287 42.4165 2.92368 47.5263 0.940346C47.6887 0.874235 47.6813 0.675902 47.5189 0.631828C41.3236 -0.910763 34.8182 -0.0366273 29.7011 7.78651C23.8676 16.7042 20.3897 27.326 12.3336 23.4842C17.3105 28.2001 23.4541 26.158 28.7411 19.7893C29.4943 18.8858 30.2401 17.9456 30.9859 16.9833L31.8646 15.8447C34.3826 15.6611 36.236 15.0587 37.2919 14.6106L35.564 16.9833C29.7749 24.8725 22.0216 34.3338 10.5098 29.6619C23.7938 38.4547 33.7402 25.7981 38.6801 21.185C44.7868 15.4774 50.9377 8.16114 65.6986 7.75713C66.0309 7.74978 66.2745 7.70571 65.6838 7.36046V7.35312Z" fill="white"/>
<path d="M101.65 33.1583C102.322 33.1363 102.869 32.6294 102.913 31.961V23.4988H99.8929V31.0501H88.9644V29.1917H96.6291V23.4988H85.9443V25.6951H93.5869V27.1937H85.9443V31.5129C85.9443 32.1079 86.0625 32.534 86.3062 32.7911C86.5351 33.0188 86.8895 33.151 87.3769 33.151H101.643L101.65 33.1583Z" fill="white"/>
<path d="M86.9439 39.5637C86.9439 40.1587 87.0621 40.5774 87.3057 40.8198C87.5346 41.0329 87.8965 41.1431 88.3986 41.1431H101.446C101.934 41.1431 102.288 41.0402 102.517 40.8198C102.775 40.5774 102.901 40.1587 102.901 39.5637V34.4585H86.9365V39.5637H86.9439ZM89.964 36.5373H99.8882V39.0495H89.964V36.5373Z" fill="white"/>
<path d="M64.4875 28.6186C64.4875 30.051 65.0487 31.2484 66.1785 32.196C67.2344 33.1068 68.4749 33.5623 69.9001 33.5623C71.3252 33.5623 72.5879 33.1068 73.6438 32.196C74.7662 31.2557 75.3347 30.0657 75.3347 28.6186C75.3347 28.1632 75.2461 27.7225 75.0763 27.2964C74.9065 26.8997 74.6776 26.5325 74.397 26.1872H75.9993V24.101H71.5098V22.4409H68.2903V24.101H63.8008V26.1872H65.3219C65.0487 26.5692 64.8419 26.9512 64.7016 27.3405C64.5613 27.7665 64.4875 28.1926 64.4875 28.6186ZM68.1426 27.0099C68.63 26.5471 69.2133 26.3194 69.9001 26.3194C70.5868 26.3194 71.1332 26.5471 71.6353 27.0099C72.1522 27.5021 72.4106 28.0971 72.4106 28.7949C72.4106 29.4928 72.1522 30.0657 71.6353 30.5579C71.1406 31.0354 70.5572 31.2704 69.9001 31.2704C69.2429 31.2704 68.63 31.0354 68.1426 30.5579C67.6553 30.0657 67.4116 29.4781 67.4116 28.7949C67.4116 28.1118 67.6553 27.4874 68.1426 27.0099Z" fill="white"/>
<path d="M80.6158 28.0457V23.5061H77.5957V38.9614H67.6715V34.98H64.6514V39.5784C64.6514 40.1734 64.7769 40.6068 65.0353 40.8566C65.2495 41.0696 65.6039 41.1798 66.106 41.1798H79.4786C80.0325 41.1798 80.6084 40.8125 80.6084 40.0412V30.2862H83.0526V28.0457H80.6084H80.6158Z" fill="white"/>
<path d="M123.817 41.7087C124.541 41.7087 125.132 41.121 125.132 40.3938V23.5061H118.176V35.5016H111.22V25.7245H116.721V23.5061H108.178V36.1186C108.178 36.7136 108.303 37.1397 108.54 37.3968C108.768 37.6098 109.13 37.7126 109.632 37.7126H118.168V41.694H119.704C120.413 41.6793 120.989 41.099 120.989 40.3865V25.7906H122.244V41.7013H123.81L123.817 41.7087Z" fill="white"/>
<path d="M167.442 39.0128V23.5061H151.765V25.7245H164.422V38.0432H161.719V32.0197H158.721V38.0432H156.573V32.0197H153.575V38.0432H150.702V40.2616H166.209C166.881 40.2322 167.427 39.6886 167.442 39.0128Z" fill="white"/>
<path d="M146.662 26.3562V23.4988H143.641V33.9149H130.712V36.1333H143.641V41.694H145.539C146.167 41.5985 146.654 41.0549 146.654 40.4012V28.5673H149.098V26.3489H146.654L146.662 26.3562Z" fill="white"/>
<path d="M141.395 24.1452H136.905V22.4851H133.686V24.1452H129.196V26.2314H130.939C130.363 26.9366 130.031 27.796 130.031 28.7216C130.031 31.1677 132.379 33.1437 135.281 33.1437C138.183 33.1437 140.531 31.1603 140.531 28.7216C140.531 27.796 140.199 26.9439 139.623 26.2314H141.387V24.1452H141.395ZM135.281 31.2044C133.907 31.2044 132.792 30.0658 132.792 28.6628C132.792 27.2598 133.907 26.1212 135.281 26.1212C136.654 26.1212 137.769 27.2598 137.769 28.6628C137.769 30.0658 136.654 31.2044 135.281 31.2044Z" fill="white"/>
<path d="M64.6162 45.6531H66.034V48.1212H68.7735V45.6531H70.1912V51.8895H68.7735V49.1129H66.034V51.8895H64.6162V45.6531Z" fill="white"/>
<path d="M74.5951 46.6374L76.4411 51.8895H77.9475L75.4812 45.6531H73.7016L71.2354 51.8895H72.7786L74.6025 46.6374H74.5951Z" fill="white"/>
<path d="M130.023 50.9052L128.177 45.6531H126.671L129.137 51.8895H130.917L133.383 45.6531H131.84L130.016 50.9052H130.023Z" fill="white"/>
<path d="M78.874 45.6531H80.2918V50.8979H83.2454V51.8895H78.874V45.6531Z" fill="white"/>
<path d="M84.4834 45.6531H85.9011V50.8979H88.8548V51.8895H84.4834V45.6531Z" fill="white"/>
<path d="M90.7091 49.2525L88.5234 45.6531H90.0741L91.4697 48.1873L92.917 45.6531H94.4603L92.1269 49.3553V51.8895H90.7091V49.2525Z" fill="white"/>
<path d="M95.5596 45.6531H97.4425L98.9341 50.2515H98.9563L100.514 45.6531H102.464V51.8895H101.216V46.9312H101.201L99.547 51.8895H98.2769L96.6524 46.9312H96.6376V51.8895H95.5743V45.6531H95.5596Z" fill="white"/>
<path d="M108.939 45.6531V49.4581C108.939 50.4278 109.375 51.0081 110.446 51.0081C111.516 51.0081 111.952 50.4278 111.952 49.4581V45.6531H113.37V49.8768C113.37 51.3386 112.188 51.9997 110.446 51.9997C108.703 51.9997 107.521 51.3386 107.521 49.8768V45.6531H108.939Z" fill="white"/>
<path d="M115.639 45.6531H117.367L120.438 50.347H120.46V45.6531H121.708V51.8895H120.003L116.901 47.2691H116.887V51.8895H115.639V45.6531Z" fill="white"/>
<path d="M123.986 45.6531H125.404V51.8895H123.986V45.6531Z" fill="white"/>
<path d="M139.49 46.6447H136.33V48.2681H139.084V49.1863H136.33V50.8979H139.49V51.8895H134.912V45.6531H139.49V46.6447Z" fill="white"/>
<path d="M148.194 50.6115C148.719 50.8465 149.295 51.0155 149.871 51.0155C150.314 51.0155 150.867 50.8465 150.867 50.325C150.867 49.4288 148.298 48.5841 148.298 47.1076C148.298 46.3069 148.874 45.5503 150.395 45.5503C150.897 45.5503 151.399 45.6164 151.886 45.7192L152.027 46.8137C151.613 46.6595 151.163 46.542 150.712 46.542C149.996 46.542 149.715 46.9239 149.715 47.2031C149.715 48.1947 152.278 48.8705 152.278 50.3837C152.278 51.111 151.761 52.0071 150.129 52.0071C149.531 52.0071 148.933 51.897 148.342 51.7647L148.194 50.6115Z" fill="white"/>
<path d="M154.309 45.6531H155.726V51.8895H154.309V45.6531Z" fill="white"/>
<path d="M157.365 45.6531H162.674V46.6447H160.725V51.8895H159.307V46.6447H157.357V45.6531H157.365Z" fill="white"/>
<path d="M165.259 49.2525L163.081 45.6531H164.632L166.02 48.1873L167.467 45.6531H169.01L166.677 49.3553V51.8895H165.259V49.2525Z" fill="white"/>
<path d="M144.983 49.0174C145.95 48.775 146.563 48.3489 146.563 47.2324C146.563 46.204 145.728 45.6531 144.503 45.6531H141.638V51.8895H142.982V46.5713H144.237C145.005 46.5713 145.212 46.99 145.212 47.4381C145.212 48.18 144.643 48.4371 143.942 48.4371C143.809 48.4371 143.329 48.4371 143.329 48.4371L145.418 51.8895H146.91L144.983 49.0174Z" fill="white"/>
</g>
<defs>
<clipPath id="clip0_1_959">
<rect width="169" height="52" fill="white"/>
</clipPath>
</defs>
</svg>
