<svg width="86" height="24" viewBox="0 0 86 24" fill="none" xmlns="http://www.w3.org/2000/svg">
<g clip-path="url(#clip0_1_1347)">
<path d="M30.9372 8.70358C31.4875 8.68595 31.9337 8.27149 31.9694 7.73359V0.861328H29.5033V6.99287H20.5672V5.48497H26.835V0.861328H18.0981V2.64553H24.3481V3.86243H18.0981V7.37204C18.0981 7.85704 18.1963 8.20389 18.3956 8.41258C18.583 8.59776 18.8746 8.70358 19.2732 8.70358H30.9372Z" fill="#002870"/>
<path d="M18.9194 13.9004C18.9194 14.3854 19.0176 14.7234 19.2169 14.9204C19.4043 15.0938 19.7018 15.179 20.1093 15.179H30.7768C31.1754 15.179 31.4669 15.0938 31.6543 14.9204C31.8655 14.7234 31.9697 14.3854 31.9697 13.9004V9.75293H18.9194V13.9004ZM21.3885 11.446H29.5036V13.4859H21.3885V11.446Z" fill="#002870"/>
<path d="M0.559253 5.01457C0.559253 6.17857 1.01736 7.14562 1.93954 7.91868C2.80221 8.65646 3.8166 9.02682 4.97973 9.02682C6.14286 9.02682 7.17807 8.65646 8.04075 7.91868C8.95994 7.15738 9.42103 6.19032 9.42103 5.01457C9.42103 4.64421 9.34964 4.28855 9.20982 3.9417C9.07001 3.61837 8.88558 3.31855 8.65057 3.04225H9.96243V1.34917H6.29457V0H3.66192V1.34917H0V3.04225H1.24047C1.02034 3.35383 0.850778 3.6654 0.734763 3.97697C0.618748 4.32382 0.562228 4.66773 0.562228 5.01457H0.559253ZM3.54888 3.70655C3.94452 3.33325 4.42345 3.14513 4.9827 3.14513C5.54196 3.14513 5.99114 3.33325 6.39868 3.70655C6.81812 4.10631 7.02933 4.58837 7.02933 5.15566C7.02933 5.72296 6.81812 6.18739 6.39868 6.58714C5.99114 6.97514 5.51816 7.1662 4.9827 7.1662C4.44725 7.1662 3.94452 6.9722 3.54888 6.58714C3.15323 6.19032 2.95393 5.71121 2.95393 5.15566C2.95393 4.60012 3.15026 4.09455 3.54888 3.70655Z" fill="#002870"/>
<path d="M13.7431 4.5473V0.864258H11.277V13.4154H3.16191V10.1791H0.692871V13.9151C0.692871 14.4001 0.796987 14.7469 1.00819 14.9556C1.1837 15.129 1.47523 15.2143 1.88277 15.2143H12.8179C13.2701 15.2143 13.7431 14.9174 13.7431 14.2884V6.36677H15.7392V4.5473H13.7431Z" fill="#002870"/>
<path d="M49.0594 15.6434V15.6376C49.6543 15.6376 50.1332 15.1614 50.1332 14.5765V0.861328H44.4485V10.5995H38.7637V2.66317H43.2616V0.861328H36.2769V11.1051C36.2769 11.59 36.378 11.9369 36.5743 12.1427C36.7588 12.3161 37.0562 12.4013 37.4668 12.4013H44.4455V15.6346H45.6979C46.2809 15.6229 46.748 15.1526 46.748 14.5735V2.72783H47.7713V15.6464H49.0534L49.0594 15.6434Z" fill="#002870"/>
<path d="M84.721 13.4507V0.861328H71.9057V2.66317H82.2519V12.6629H80.0387L80.0298 7.7718H77.5875V12.6629H75.8324V7.7718H73.3842V12.6629H71.0371V14.4648H83.7125C84.2658 14.4442 84.7091 14.0003 84.718 13.4507H84.721Z" fill="#002870"/>
<path d="M67.738 3.17781V0.858643H65.272V9.31816H54.6997V11.12H65.272V15.6378H66.8248C67.3394 15.5614 67.7351 15.1205 67.7351 14.5914V4.97965H69.7311V3.17781H67.7351H67.738Z" fill="#002870"/>
<path d="M63.4337 1.37871H59.7659V0.029541H57.1332V1.37871H53.4653V3.07179H54.8873C54.4202 3.64791 54.1436 4.34454 54.1436 5.09115C54.1436 7.07522 56.0653 8.68306 58.4361 8.68306C60.807 8.68306 62.7287 7.07522 62.7287 5.09115C62.7287 4.3416 62.455 3.64497 61.985 3.07179H63.4307V1.37871H63.4337ZM58.4391 7.11344C57.3147 7.11344 56.4044 6.19047 56.4044 5.04999C56.4044 3.90952 57.3147 2.98655 58.4391 2.98655C59.5636 2.98655 60.4738 3.90952 60.4738 5.04999C60.4738 6.19047 59.5636 7.11344 58.4391 7.11344Z" fill="#002870"/>
<path d="M0.660156 18.844H1.82031V20.8486H4.06029V18.844H5.22045V23.9085H4.06029V21.654H1.82031V23.9085H0.660156V18.844Z" fill="#002870"/>
<path d="M8.82293 19.6406L10.3341 23.9085H11.5627L9.54282 18.844H8.08817L6.07129 23.9085H7.33258L8.81996 19.6406H8.82293Z" fill="#002870"/>
<path d="M54.1343 23.112L52.6231 18.844H51.3945L53.4144 23.9085H54.869L56.8859 18.844H55.6246L54.1373 23.112H54.1343Z" fill="#002870"/>
<path d="M12.3184 18.844H13.4785V23.1031H15.891V23.9085H12.3184V18.844Z" fill="#002870"/>
<path d="M16.9053 18.844H18.0654V23.1031H20.4779V23.9085H16.9053V18.844Z" fill="#002870"/>
<path d="M21.986 21.7687L20.2012 18.844H21.4684L22.6077 20.9016L23.7917 18.844H25.053L23.1462 21.851V23.9085H21.986V21.7687Z" fill="#002870"/>
<path d="M25.9604 18.844H27.4984L28.721 22.5799H28.7359L30.0121 18.844H31.6035V23.9085H30.5802V19.8845H30.5654L29.2118 23.9085H28.1737L26.844 19.8845H26.8291V23.9085H25.9604V18.844Z" fill="#002870"/>
<path d="M36.8926 18.844V21.9333C36.8926 22.724 37.2466 23.1943 38.1212 23.1943C38.9958 23.1943 39.3498 22.724 39.3498 21.9333V18.844H40.5099V22.2742C40.5099 23.4588 39.5431 23.9997 38.1212 23.9997C36.6993 23.9997 35.7295 23.4618 35.7295 22.2742V18.844H36.8896H36.8926Z" fill="#002870"/>
<path d="M42.3691 18.844H43.7821L46.2958 22.6564H46.3107V18.844H47.334V23.9085H45.9418L43.4073 20.1579H43.3925V23.9085H42.3691V18.844Z" fill="#002870"/>
<path d="M49.1904 18.844H50.3506V23.9085H49.1904V18.844Z" fill="#002870"/>
<path d="M61.8687 19.6494H59.2866V20.9721H61.5385V21.7158H59.2866V23.1061H61.8687V23.9115H58.1265V18.8469H61.8687V19.6523V19.6494Z" fill="#002870"/>
<path d="M68.9814 22.868C69.4128 23.0591 69.8798 23.1943 70.3498 23.1943C70.7098 23.1943 71.1649 23.0591 71.1649 22.6329C71.1649 21.9039 69.0677 21.222 69.0677 20.0227C69.0677 19.3702 69.5377 18.7559 70.7812 18.7559C71.1887 18.7559 71.6022 18.8088 72.0038 18.8911L72.1198 19.7788C71.7837 19.6582 71.4118 19.5583 71.0429 19.5583C70.4599 19.5583 70.2279 19.8699 70.2279 20.0962C70.2279 20.9016 72.3251 21.4483 72.3251 22.677C72.3251 23.2707 71.9026 23.9997 70.567 23.9997C70.0762 23.9997 69.5913 23.9086 69.1064 23.8028L68.9844 22.868H68.9814Z" fill="#002870"/>
<path d="M73.9756 18.844H75.1357V23.9085H73.9756V18.844Z" fill="#002870"/>
<path d="M76.4834 18.844H80.8265V19.6494H79.235V23.9085H78.0749V19.6494H76.4834V18.844Z" fill="#002870"/>
<path d="M82.9328 21.7687L81.1509 18.844H82.4181L83.5545 20.9016L84.7384 18.844H85.9967L84.0899 21.851V23.9085H82.9298V21.7687H82.9328Z" fill="#002870"/>
<path d="M66.3633 21.5776C67.1516 21.3777 67.6513 21.0309 67.6513 20.1256C67.6513 19.2908 66.9671 18.844 65.9676 18.844H63.6235V23.9085H64.7242V19.5877H65.7535C66.3841 19.5877 66.5537 19.9286 66.5537 20.2931C66.5537 20.8927 66.0866 21.1044 65.5125 21.1044C65.4054 21.1044 65.0098 21.1044 65.0098 21.1044L66.7202 23.9056H67.9429L66.3663 21.5747L66.3633 21.5776Z" fill="#002870"/>
</g>
<defs>
<clipPath id="clip0_1_1347">
<rect width="86" height="24" fill="white"/>
</clipPath>
</defs>
</svg>
