<svg width="140" height="140" viewBox="0 0 140 140" fill="none" xmlns="http://www.w3.org/2000/svg">
<path d="M73.4995 125.928V135.826H71.4487V131.725H67.1558V135.826H65.0913V125.928H67.1558V130.029H71.4487V125.928H73.4995Z" fill="white"/>
<path d="M62.0969 125.416L64.2781 125.8L59.1797 134.953L56.5811 134.494L54.9339 124.153L57.1017 124.535L57.4323 126.912L60.9599 127.534L62.0969 125.416ZM60.1705 129.019L57.6661 128.577L58.2338 132.523L58.3011 132.535L60.1705 129.019Z" fill="white"/>
<path d="M53.2798 123.469L49.8943 132.77L47.9672 132.069L50.7729 124.361L46.7645 122.902L47.3443 121.309L53.2798 123.469Z" fill="white"/>
<path d="M44.2538 119.773L39.3046 128.345L37.5286 127.32L41.6302 120.215L37.936 118.083L38.7837 116.614L44.2538 119.773Z" fill="white"/>
<path d="M31.0796 123.352L29.3096 121.867L30.3025 117.132L30.2291 117.07L25.7487 118.879L23.9787 117.394L30.8389 114.833L33.1062 112.131L34.6772 113.449L32.4099 116.152L31.0796 123.352Z" fill="white"/>
<path d="M22.6921 116.138L21.0575 114.19L24.4334 107.77L24.3631 107.686L17.4544 109.896L15.8198 107.948L23.4024 101.585L24.6855 103.114L19.7211 107.28L19.7739 107.343L26.3677 105.183L27.2465 106.23L23.9536 112.366L24.0064 112.429L28.9917 108.246L30.2747 109.775L22.6921 116.138Z" fill="white"/>
<path d="M18.0083 99.5571C18.3295 100.114 18.1394 100.823 17.5879 101.126C17.0501 101.452 16.3522 101.255 16.0309 100.699C15.7302 100.178 15.9017 99.463 16.4463 99.1485C16.991 98.8341 17.7075 99.0361 18.0083 99.5571Z" fill="white"/>
<path d="M7.34205 90.5407L6.63597 88.6007L12.6742 86.403C14.717 85.6595 16.6271 86.7102 17.4687 89.0227C18.3104 91.3352 17.5179 93.355 15.4752 94.0985L9.43692 96.2963L8.73552 94.3692L14.6196 92.2276C15.6859 91.8394 16.1937 90.7962 15.7729 89.6399C15.3474 88.4708 14.2925 88.0109 13.2261 88.399L7.34205 90.5407Z" fill="white"/>
<path d="M4.47411 77.9048L14.2222 76.1859L14.5308 77.9363L9.09224 83.31L9.10649 83.3908L15.3 82.2987L15.6561 84.3183L5.90806 86.0372L5.59468 84.2599L11.038 78.9131L11.0214 78.8189L4.82785 79.911L4.47411 77.9048Z" fill="white"/>
<path d="M4.10156 68.8508H14L14 70.9016H4.10156L4.10156 68.8508Z" fill="white"/>
<path d="M4.77818 60.4433L12.6282 59.3841L12.6449 59.2898L5.63286 55.5962L6.02696 53.3611L15.1815 58.446L14.7233 61.0446L4.37933 62.7052L4.77818 60.4433Z" fill="white"/>
<path d="M16.3175 53.815L7.01603 50.4295L9.28859 44.1857L10.8817 44.7656L9.31051 49.0823L11.5716 49.9053L13.0259 45.9097L14.619 46.4896L13.1647 50.4851L15.4259 51.3081L17.0017 46.9785L18.5948 47.5583L16.3175 53.815Z" fill="white"/>
<path d="M19.7979 45.019L11.2256 40.0698L13.167 36.7072C14.2949 34.7536 16.0386 34.2763 17.7318 35.2539C18.904 35.9306 19.4454 36.9616 19.2959 38.1776L23.6875 38.282L22.5528 40.2474L18.5665 40.1246L17.7803 41.4862L20.8233 43.243L19.7979 45.019ZM16.3358 40.6522L17.0604 39.3971C17.6688 38.3434 17.5247 37.5813 16.6722 37.0891C15.8079 36.5901 15.0403 36.8258 14.4319 37.8796L13.7073 39.1346L16.3358 40.6522Z" fill="white"/>
<path d="M22.951 28.0306C22.3013 27.5925 21.5409 27.7755 20.8994 28.54C20.2315 29.336 20.229 30.0835 20.7229 30.5158C21.2587 30.9832 21.9934 30.6181 22.6849 30.0918L23.4237 29.5516C24.8067 28.499 26.2838 28.0787 27.551 29.142C28.944 30.3108 28.9098 32.1383 27.3631 33.9816C25.8252 35.8144 23.9926 36.2755 22.334 34.9553L23.6171 33.4262C24.4256 34.0153 25.3228 33.7331 26.0259 32.8952C26.7201 32.0678 26.7808 31.2085 26.2153 30.734C25.7021 30.3033 25.0657 30.5725 24.162 31.2241L23.2687 31.8845C21.8824 32.8986 20.5844 33.1481 19.4742 32.2165C18.0918 31.0565 18.2 29.077 19.5885 27.4223C20.9946 25.7465 22.8583 25.4185 24.2165 26.5224L22.951 28.0306Z" fill="white"/>
<path d="M28.5109 18.8771L34.8735 26.4597L33.3025 27.7779L26.9399 20.1953L28.5109 18.8771Z" fill="white"/>
<path d="M34.5199 16.4494L33.6722 14.9812L40.6934 10.9275L41.5411 12.3957L38.9126 13.9132L43.0141 21.0174L41.2499 22.0359L37.1484 14.9318L34.5199 16.4494Z" fill="white"/>
<path d="M43.1237 9.76787L45.2949 8.97762L48.8994 12.2051L48.9893 12.1724L49.663 7.38776L51.8342 6.5975L50.6216 13.8189L51.828 17.1335L49.9009 17.8349L48.6945 14.5203L43.1237 9.76787Z" fill="white"/>
<path d="M59.8955 11.1869C59.2627 11.2985 58.6609 10.877 58.5651 10.2553C58.4425 9.63834 58.8663 9.04995 59.4991 8.93837C60.0915 8.83391 60.7044 9.23949 60.8136 9.85885C60.9229 10.4782 60.488 11.0824 59.8955 11.1869Z" fill="white"/>
<path d="M66.2822 14.1462V4.2478L68.333 4.2478V8.34937L72.626 8.34937V4.2478H74.6904V14.1462H72.626V10.0447L68.333 10.0447V14.1462H66.2822Z" fill="white"/>
<path d="M77.6849 14.6582L75.5037 14.2736L80.602 5.12147L83.2006 5.57967L84.8478 15.9213L82.6801 15.539L82.3495 13.1623L78.8219 12.5403L77.6849 14.6582ZM79.6113 11.0552L82.1156 11.4968L81.548 7.55117L81.4807 7.5393L79.6113 11.0552Z" fill="white"/>
<path d="M86.5015 16.6051L89.8869 7.3036L91.814 8.00501L89.0084 15.7134L93.0168 17.1724L92.4369 18.7654L86.5015 16.6051Z" fill="white"/>
<path d="M95.5274 20.3013L100.477 11.729L102.253 12.7544L98.1511 19.8585L101.845 21.9913L100.998 23.4595L95.5274 20.3013Z" fill="white"/>
<path d="M108.702 16.7218L110.472 18.207L109.479 22.9423L109.552 23.0038L114.033 21.1949L115.803 22.6801L108.942 25.2406L106.675 27.9427L105.104 26.6245L107.371 23.9224L108.702 16.7218Z" fill="white"/>
<path d="M117.089 23.9362L118.724 25.8843L115.348 32.3044L115.418 32.3881L122.327 30.1783L123.961 32.1263L116.379 38.4889L115.096 36.9598L120.06 32.7943L120.007 32.7314L113.414 34.8912L112.535 33.8439L115.828 27.7076L115.775 27.6448L110.79 31.8279L109.507 30.2988L117.089 23.9362Z" fill="white"/>
<path d="M121.773 40.5169C121.452 39.9604 121.642 39.2507 122.193 38.9481C122.731 38.6218 123.429 38.8188 123.75 39.3753C124.051 39.8963 123.88 40.611 123.335 40.9254C122.79 41.2399 122.074 41.0379 121.773 40.5169Z" fill="white"/>
<path d="M132.439 49.5333L133.145 51.4733L127.107 53.671C125.064 54.4145 123.154 53.3638 122.313 51.0513C121.471 48.7387 122.263 46.7189 124.306 45.9754L130.344 43.7777L131.046 45.7048L125.162 47.8464C124.095 48.2345 123.588 49.2778 124.008 50.434C124.434 51.6031 125.489 52.0631 126.555 51.6749L132.439 49.5333Z" fill="white"/>
<path d="M135.308 62.1692L125.56 63.888L125.251 62.1377L130.689 56.764L130.675 56.6832L124.482 57.7753L124.126 55.7557L133.874 54.0368L134.187 55.8141L128.744 61.1609L128.76 61.2551L134.954 60.163L135.308 62.1692Z" fill="white"/>
<path d="M135.68 71.2231H125.781V69.1724H135.68V71.2231Z" fill="white"/>
<path d="M135.003 79.6307L127.153 80.6899L127.136 80.7842L134.148 84.4778L133.754 86.7129L124.6 81.628L125.058 79.0294L135.402 77.3687L135.003 79.6307Z" fill="white"/>
<path d="M123.464 86.2587L132.766 89.6442L130.493 95.888L128.9 95.3082L130.471 90.9915L128.21 90.1685L126.756 94.164L125.163 93.5842L126.617 89.5886L124.356 88.7657L122.78 93.0952L121.187 92.5154L123.464 86.2587Z" fill="white"/>
<path d="M119.984 95.0547L128.556 100.004L126.615 103.367C125.487 105.32 123.743 105.797 122.05 104.82C120.878 104.143 120.336 103.112 120.486 101.896L116.094 101.792L117.229 99.8263L121.215 99.9492L122.001 98.5876L118.958 96.8307L119.984 95.0547ZM123.446 99.4215L122.721 100.677C122.113 101.73 122.257 102.492 123.11 102.985C123.974 103.484 124.741 103.248 125.35 102.194L126.074 100.939L123.446 99.4215Z" fill="white"/>
<path d="M116.831 112.043C117.48 112.481 118.241 112.298 118.882 111.534C119.55 110.738 119.553 109.99 119.059 109.558C118.523 109.091 117.788 109.456 117.097 109.982L116.358 110.522C114.975 111.575 113.498 111.995 112.231 110.932C110.838 109.763 110.872 107.935 112.419 106.092C113.957 104.259 115.789 103.798 117.448 105.118L116.165 106.648C115.356 106.058 114.459 106.341 113.756 107.179C113.062 108.006 113.001 108.865 113.566 109.34C114.08 109.77 114.716 109.501 115.62 108.85L116.513 108.189C117.899 107.175 119.197 106.926 120.307 107.857C121.69 109.017 121.582 110.997 120.193 112.651C118.787 114.327 116.923 114.655 115.565 113.551L116.831 112.043Z" fill="white"/>
<path d="M111.271 121.197L104.908 113.614L106.479 112.296L112.842 119.879L111.271 121.197Z" fill="white"/>
<path d="M105.262 123.625L106.11 125.093L99.0883 129.146L98.2406 127.678L100.869 126.161L96.7676 119.057L98.5318 118.038L102.633 125.142L105.262 123.625Z" fill="white"/>
<path d="M96.6575 130.306L94.4863 131.096L90.8819 127.869L90.7919 127.902L90.1182 132.686L87.947 133.476L89.1597 126.255L87.9532 122.941L89.8804 122.239L91.0868 125.554L96.6575 130.306Z" fill="white"/>
<path d="M79.8857 128.887C80.5185 128.775 81.1204 129.197 81.2161 129.818C81.3388 130.435 80.915 131.024 80.2822 131.135C79.6898 131.24 79.0768 130.834 78.9676 130.215C78.8584 129.596 79.2933 128.991 79.8857 128.887Z" fill="white"/>
<path d="M83.0039 74.5L69.5039 88M69.5039 88L56.0039 74.5M69.5039 88L69.5039 52" stroke="white" stroke-width="4"/>
</svg>
